<?xml version="1.0" encoding="UTF-8"?>
<svg id="Layer_2" data-name="Layer 2" xmlns="http://www.w3.org/2000/svg" viewBox="0 0 5385.77 1480.81">
  <defs>
    <style>
      .cls-1 {
        fill: #29c708;
      }
    </style>
  </defs>
  <g id="Layer_1-2" data-name="Layer 1">
    <g>
      <path d="M2197.79,734.23c0,88.44-15.68,162.57-47.05,222.38-31.36,59.82-77.38,103.61-138.06,131.37l180.99,202.07h-204.13l-137.8-168.65h-11.83c-115.18,0-203.61-33.42-265.32-100.26-61.7-66.84-92.55-162.82-92.55-287.94s30.93-220.66,92.81-286.65c61.87-65.98,150.57-98.98,266.09-98.98s203.87,33.25,265.06,99.75c61.19,66.5,91.78,162.14,91.78,286.91Zm-548.63,0c0,83.99,15.94,147.23,47.82,189.73,31.88,42.51,79.52,63.76,142.94,63.76,127.17,0,190.76-84.49,190.76-253.49s-63.24-254-189.73-254c-63.42,0-111.24,21.34-143.46,64.02-32.22,42.68-48.33,106.01-48.33,189.99Z"/>
      <path d="M2907.45,359.4v486.41c0,55.53-12.43,104.21-37.28,146.03-24.86,41.82-60.76,73.87-107.72,96.15-46.97,22.29-102.5,33.42-166.59,33.42-96.67,0-171.74-24.76-225.21-74.3-53.47-49.53-80.21-117.31-80.21-203.36V359.4h158.88v460.19c0,57.93,11.65,100.44,34.96,127.52,23.31,27.08,61.87,40.62,115.69,40.62s89.89-13.63,113.38-40.88c23.48-27.25,35.22-70.01,35.22-128.29V359.4h158.88Z"/>
      <path d="M3007.65,1111.13V359.4h159.4v751.73h-159.4Z"/>
      <path d="M4674.16,734.23c0,124.43-30.85,220.07-92.55,286.91-61.7,66.84-150.14,100.26-265.32,100.26s-203.61-33.42-265.32-100.26c-61.7-66.84-92.55-162.82-92.55-287.94s30.93-220.66,92.81-286.65c61.87-65.98,150.57-98.98,266.09-98.98s203.87,33.25,265.06,99.75c61.19,66.5,91.78,162.14,91.78,286.91Zm-548.63,0c0,83.99,15.94,147.23,47.82,189.73,31.88,42.51,79.52,63.76,142.94,63.76,127.17,0,190.76-84.49,190.76-253.49s-63.24-254-189.73-254c-63.42,0-111.24,21.34-143.46,64.02-32.22,42.68-48.33,106.01-48.33,189.99Z"/>
      <path d="M5214.03,1111.13l-54.5-178.93h-274.06l-54.5,178.93h-171.74l265.32-754.81h194.87l266.34,754.81h-171.74Zm-92.55-312.62c-50.39-162.14-78.76-253.83-85.1-275.09-6.35-21.25-10.89-38.05-13.63-50.39-11.31,43.88-43.71,152.37-97.18,325.48h195.9Z"/>
      <path d="M3857.59,1110.78h-153.2v-431.59c0-53.31-9.48-93.3-28.42-119.96-18.95-26.65-49.14-39.99-90.55-39.99-56.41,0-97.16,18.84-122.27,56.51-25.12,37.67-37.67,100.13-37.67,187.38v347.65h-158.23V371.85h98.66c7.09,0,13.33,4.7,15.29,11.52l20.7,72.19c1.83,6.4,7.69,10.81,14.34,10.81,6.18,0,10-7.65,12.31-12.35,4.53-9.2,8.54-18.44,14.34-26.97,15.03-22.12,37.24-38.91,61.13-50.51,21.65-10.51,45.3-16.57,69.22-18.83,24.39-2.31,49.13-.74,73.13,4.1,23.81,4.81,47.02,12.86,68.56,24.11,10.12,5.28,19.87,11.28,29.08,18.02,49.07,35.89,86.12,88.35,102.22,147.09,16.03,58.47,11.37,119.79,11.37,179.6v361.81c0,.92,0,18.34,0,18.34Z"/>
    </g>
    <path class="cls-1" d="M1030.71,219.64C916.79,78,764.64,0,602.31,0S287.84,78,173.92,219.64C61.76,359.08,0,544.02,0,740.4s61.76,381.33,173.92,520.76c113.92,141.64,266.07,219.64,428.39,219.64s314.47-78,428.4-219.64c112.15-139.43,173.92-324.37,173.92-520.76s-61.76-381.33-173.92-520.76Zm-411.81,1171.52v-96.72h-.02v-88.3c0-21.18,23.63-49.63,44.78-48.53,48.89,12.48,122.74,14.56,187.23-12.48,81.81-39.58,106.61-90.36,125.9-124.76,5.22-9.3,.12-19.83-10.41-21.51-38.94-6.22-129.32-14.28-211.13,25.3-54.52,26.38-94.8,68.86-121.31,104.45-4.8,6.45-15.05,3-15.05-5.04v-126.11c0-21.18,23.63-49.63,44.78-48.53,48.89,12.48,122.74,14.56,187.23-12.48,81.81-39.59,106.61-90.36,125.9-124.76,5.22-9.3,.12-19.83-10.41-21.51-38.94-6.22-129.32-14.28-211.13,25.3-54.52,26.38-94.8,68.86-121.31,104.45-4.8,6.45-15.05,3-15.05-5.04v-128.45c0-21.18,23.63-49.63,44.78-48.53,9.17,2.34,19.22,4.32,29.92,5.8,117.78-132.13,223.89-156.87,283-158.23-2.13-3.21-5.65-5.6-10.2-6.32-38.94-6.22-129.32-14.28-211.13,25.3-54.52,26.38-94.8,68.86-121.31,104.45-4.76,6.39-14.84,3.05-15.03-4.82v-66.17c0-26.71,6.84-52.91,19.6-76.37,21.63-39.75,41.27-65.73,41.27-130,0-90.97-43.03-147.13-65.56-179.42-2.89-4.14-7.39-6.21-11.89-6.2-4.5,0-9.01,2.06-11.89,6.2-22.53,32.29-65.56,88.66-65.56,179.64,0,64.28,19.63,90.04,41.27,129.79,12.77,23.46,19.6,49.66,19.6,76.37v66.17c-.19,7.88-10.27,11.21-15.03,4.82-26.52-35.59-66.8-78.07-121.32-104.45-81.81-39.58-172.19-31.52-211.13-25.3-10.53,1.68-15.62,12.21-10.41,21.51,19.29,34.4,44.09,85.17,125.9,124.75,64.49,27.04,138.34,24.96,187.23,12.48,21.15-1.1,44.78,27.35,44.78,48.53v128.45c0,8.04-10.24,11.49-15.05,5.04-26.52-35.59-66.8-78.07-121.32-104.45-81.81-39.58-172.19-31.52-211.13-25.3-10.53,1.68-15.62,12.21-10.41,21.51,19.29,34.4,44.09,85.17,125.9,124.76,64.49,27.04,138.34,24.96,187.23,12.48,21.15-1.1,44.78,27.35,44.78,48.53v126.11c0,8.04-10.24,11.49-15.05,5.04-26.52-35.59-66.8-78.07-121.32-104.45-81.81-39.58-172.19-31.52-211.13-25.3-10.53,1.68-15.62,12.21-10.41,21.51,19.29,34.4,44.09,85.17,125.9,124.76,64.49,27.04,138.34,24.96,187.23,12.48,21.15-1.1,44.78,27.35,44.78,48.53v88.3h-.02v96.72c-277.52-11.07-500.58-298.72-500.58-650.76S317.15,89.27,602.31,89.27s517.16,292.1,517.16,651.13-223.06,639.69-500.58,650.76Z"/>
  </g>
</svg>