<svg width="22" height="22" viewBox="0 0 22 22" fill="none" xmlns="http://www.w3.org/2000/svg">
<path d="M22 11C22 17.0753 17.0753 22 11 22C4.9247 22 0 17.0749 0 11C0 4.92507 4.9247 0 11 0C17.0753 0 22 4.9247 22 11Z" fill="#0478FF"/>
<path d="M17.274 15.4397C17.322 15.3492 17.348 15.2487 17.3499 15.1464C17.3509 15.1329 17.3509 15.1194 17.3499 15.106V9.65588C17.3428 9.04712 17.1769 8.45074 16.8686 7.92577C16.5603 7.4008 16.1203 6.96543 15.592 6.66274C15.0638 6.36005 14.4657 6.20052 13.8569 6.19995C13.2481 6.19938 12.6497 6.35778 12.1209 6.65948L12.0662 6.69065L7.42276 9.37172L7.38206 9.39555C7.29649 9.44892 7.22416 9.52101 7.17049 9.60638C7.16499 9.61408 7.16096 9.62142 7.15619 9.62948C7.06752 9.78373 7.04363 9.96684 7.08975 10.1387C7.13587 10.3105 7.24824 10.457 7.40222 10.5462L16.343 15.7099C16.4973 15.7986 16.6804 15.8225 16.8522 15.7764C17.024 15.7302 17.1706 15.6179 17.2597 15.4639C17.2645 15.4558 17.2685 15.4485 17.2725 15.4401M7.79309 9.96608L8.33356 9.65332L10.6377 8.32378L12.4483 7.27842L12.507 7.24505C12.9286 7.01405 13.4026 6.89555 13.8834 6.90097C14.3641 6.90639 14.8354 7.03555 15.2517 7.27599C15.6681 7.51643 16.0154 7.86006 16.2604 8.27375C16.5054 8.68744 16.6396 9.15726 16.6503 9.63792V15.0804L7.79309 9.96608Z" fill="white"/>
<path d="M4.72593 15.4397C4.67781 15.3493 4.65168 15.2488 4.64967 15.1464C4.64868 15.1329 4.64868 15.1194 4.64967 15.106V9.65588C4.65674 9.04712 4.82263 8.45074 5.13095 7.92577C5.43926 7.4008 5.8793 6.96543 6.40753 6.66274C6.93576 6.36005 7.53387 6.20052 8.14268 6.19995C8.75149 6.19938 9.3499 6.35778 9.8787 6.65948L9.93333 6.69065L14.5772 9.37135L14.6179 9.39518C14.7034 9.44854 14.7758 9.52063 14.8294 9.60602C14.8349 9.61372 14.839 9.62105 14.8437 9.62912C14.9324 9.78336 14.9563 9.96647 14.9102 10.1383C14.8641 10.3101 14.7517 10.4567 14.5977 10.5458L5.6569 15.7099C5.50266 15.7986 5.31955 15.8225 5.14772 15.7764C4.97588 15.7302 4.82935 15.6179 4.74023 15.4639C4.73547 15.4558 4.73143 15.4485 4.7274 15.4401M14.2068 9.96608L13.6664 9.65332L11.3626 8.32378L9.55163 7.27805L9.49297 7.24468C9.07132 7.01369 8.59728 6.89519 8.11653 6.90061C7.63578 6.90603 7.16454 7.03518 6.7482 7.27562C6.33187 7.51606 5.98448 7.85969 5.73952 8.27338C5.49456 8.68708 5.36028 9.15689 5.34963 9.63755V15.0804L14.2068 9.96608Z" fill="white"/>
</svg>
